<svg width="48" height="48" viewBox="0 0 48 48" fill="none" xmlns="http://www.w3.org/2000/svg">
<path d="M0 24C0 10.7452 10.7452 0 24 0C37.2548 0 48 10.7452 48 24C48 37.2548 37.2548 48 24 48C10.7452 48 0 37.2548 0 24Z" fill="#F5F5F5"/>
<path d="M0.375 24C0.375 10.9523 10.9523 0.375 24 0.375C37.0477 0.375 47.625 10.9523 47.625 24C47.625 37.0477 37.0477 47.625 24 47.625C10.9523 47.625 0.375 37.0477 0.375 24Z" stroke="black" stroke-opacity="0.08" stroke-width="0.75"/>
<path d="M29.3781 17.9091V31H27.2687L21.1004 22.0831H20.9917V31H18.6203V17.9091H20.7425L26.9044 26.8324H27.0194V17.9091H29.3781Z" fill="#717680"/>
</svg>
