<svg width="46" height="32" viewBox="0 0 46 32" fill="none" xmlns="http://www.w3.org/2000/svg">
<path d="M0.5 4C0.5 2.067 2.067 0.5 4 0.5H42C43.933 0.5 45.5 2.067 45.5 4V28C45.5 29.933 43.933 31.5 42 31.5H4C2.067 31.5 0.5 29.933 0.5 28V4Z" fill="white"/>
<path d="M0.5 4C0.5 2.067 2.067 0.5 4 0.5H42C43.933 0.5 45.5 2.067 45.5 4V28C45.5 29.933 43.933 31.5 42 31.5H4C2.067 31.5 0.5 29.933 0.5 28V4Z" stroke="#E9EAEB"/>
<path fill-rule="evenodd" clip-rule="evenodd" d="M22.9053 22.4392C21.3266 23.77 19.2787 24.5733 17.0409 24.5733C12.0478 24.5733 8 20.5737 8 15.64C8 10.7062 12.0478 6.70662 17.0409 6.70662C19.2787 6.70662 21.3266 7.50995 22.9053 8.84068C24.484 7.50995 26.5319 6.70662 28.7697 6.70662C33.7628 6.70662 37.8106 10.7062 37.8106 15.64C37.8106 20.5737 33.7628 24.5733 28.7697 24.5733C26.5319 24.5733 24.484 23.77 22.9053 22.4392Z" fill="#ED0006"/>
<path fill-rule="evenodd" clip-rule="evenodd" d="M22.9053 22.4392C24.8492 20.8007 26.0818 18.3626 26.0818 15.64C26.0818 12.9173 24.8492 10.4792 22.9053 8.84068C24.484 7.50995 26.5319 6.70662 28.7697 6.70662C33.7628 6.70662 37.8106 10.7062 37.8106 15.64C37.8106 20.5737 33.7628 24.5733 28.7697 24.5733C26.5319 24.5733 24.484 23.77 22.9053 22.4392Z" fill="#F9A000"/>
<path fill-rule="evenodd" clip-rule="evenodd" d="M22.9055 22.4392C24.8494 20.8007 26.082 18.3626 26.082 15.64C26.082 12.9174 24.8494 10.4793 22.9055 8.84072C20.9616 10.4793 19.729 12.9174 19.729 15.64C19.729 18.3626 20.9616 20.8007 22.9055 22.4392Z" fill="#FF5E00"/>
</svg>
